<mxfile host="65bd71144e">
    <diagram id="_TZ215TxAo1dLzvLRqRO" name="Page-1">
        <mxGraphModel dx="1367" dy="779" grid="1" gridSize="10" guides="1" tooltips="1" connect="1" arrows="1" fold="1" page="1" pageScale="1" pageWidth="680" pageHeight="640" math="0" shadow="0">
            <root>
                <mxCell id="0"/>
                <mxCell id="1" parent="0"/>
                <mxCell id="17" value="" style="rounded=0;whiteSpace=wrap;html=1;" vertex="1" parent="1">
                    <mxGeometry x="40" y="80" width="280" height="320" as="geometry"/>
                </mxCell>
                <mxCell id="37" value="" style="group" vertex="1" connectable="0" parent="1">
                    <mxGeometry x="50" y="160" width="250" height="100" as="geometry"/>
                </mxCell>
                <mxCell id="3" value="" style="rounded=0;whiteSpace=wrap;html=1;" vertex="1" parent="37">
                    <mxGeometry x="10" width="240" height="100" as="geometry"/>
                </mxCell>
                <mxCell id="5" value="Quantity" style="rounded=0;whiteSpace=wrap;html=1;strokeColor=light-dark(#000000,transparent);" vertex="1" parent="37">
                    <mxGeometry x="20" y="10" width="220" height="20" as="geometry"/>
                </mxCell>
                <mxCell id="11" value="1" style="ellipse;whiteSpace=wrap;html=1;aspect=fixed;fillColor=light-dark(#FFFFFF,#336600);" vertex="1" parent="37">
                    <mxGeometry y="10" width="20" height="20" as="geometry"/>
                </mxCell>
                <mxCell id="20" value="The final focus stack:" style="text;html=1;align=center;verticalAlign=middle;whiteSpace=wrap;rounded=0;" vertex="1" parent="1">
                    <mxGeometry x="400" y="40" width="130" height="30" as="geometry"/>
                </mxCell>
                <mxCell id="29" value="" style="group" vertex="1" connectable="0" parent="1">
                    <mxGeometry x="50" y="110" width="250" height="40" as="geometry"/>
                </mxCell>
                <mxCell id="2" value="Edit" style="rounded=0;whiteSpace=wrap;html=1;" vertex="1" parent="29">
                    <mxGeometry x="10" width="240" height="40" as="geometry"/>
                </mxCell>
                <mxCell id="12" value="2" style="ellipse;whiteSpace=wrap;html=1;aspect=fixed;fillColor=light-dark(#FFFFFF,#336600);" vertex="1" parent="29">
                    <mxGeometry y="10" width="20" height="20" as="geometry"/>
                </mxCell>
                <mxCell id="38" value="" style="group" vertex="1" connectable="0" parent="1">
                    <mxGeometry x="80" y="210" width="50" height="40" as="geometry"/>
                </mxCell>
                <mxCell id="6" value="dec" style="rounded=0;whiteSpace=wrap;html=1;" vertex="1" parent="38">
                    <mxGeometry width="50" height="30" as="geometry"/>
                </mxCell>
                <mxCell id="15" value="2" style="ellipse;whiteSpace=wrap;html=1;aspect=fixed;fillColor=light-dark(#FFFFFF,#336600);" vertex="1" parent="38">
                    <mxGeometry x="10" y="20" width="20" height="20" as="geometry"/>
                </mxCell>
                <mxCell id="39" value="" style="group" vertex="1" connectable="0" parent="1">
                    <mxGeometry x="140" y="210" width="80" height="40" as="geometry"/>
                </mxCell>
                <mxCell id="7" value="123" style="rounded=0;whiteSpace=wrap;html=1;" vertex="1" parent="39">
                    <mxGeometry width="80" height="30" as="geometry"/>
                </mxCell>
                <mxCell id="14" value="1" style="ellipse;whiteSpace=wrap;html=1;aspect=fixed;fillColor=light-dark(#FFFFFF,#336600);" vertex="1" parent="39">
                    <mxGeometry x="10" y="20" width="20" height="20" as="geometry"/>
                </mxCell>
                <mxCell id="40" value="" style="group" vertex="1" connectable="0" parent="1">
                    <mxGeometry x="230" y="210" width="50" height="40" as="geometry"/>
                </mxCell>
                <mxCell id="8" value="inc" style="rounded=0;whiteSpace=wrap;html=1;" vertex="1" parent="40">
                    <mxGeometry width="50" height="30" as="geometry"/>
                </mxCell>
                <mxCell id="16" value="3" style="ellipse;whiteSpace=wrap;html=1;aspect=fixed;fillColor=light-dark(#FFFFFF,#336600);" vertex="1" parent="40">
                    <mxGeometry x="10" y="20" width="20" height="20" as="geometry"/>
                </mxCell>
                <mxCell id="41" value="" style="group" vertex="1" connectable="0" parent="1">
                    <mxGeometry x="50" y="280" width="250" height="40" as="geometry"/>
                </mxCell>
                <mxCell id="9" value="Delete" style="rounded=0;whiteSpace=wrap;html=1;" vertex="1" parent="41">
                    <mxGeometry x="10" width="240" height="40" as="geometry"/>
                </mxCell>
                <mxCell id="13" value="3" style="ellipse;whiteSpace=wrap;html=1;aspect=fixed;fillColor=light-dark(#FFFFFF,#336600);" vertex="1" parent="41">
                    <mxGeometry y="10" width="20" height="20" as="geometry"/>
                </mxCell>
                <mxCell id="42" value="" style="group" vertex="1" connectable="0" parent="1">
                    <mxGeometry x="50" y="340" width="250" height="40" as="geometry"/>
                </mxCell>
                <mxCell id="18" value="Cancel" style="rounded=0;whiteSpace=wrap;html=1;" vertex="1" parent="42">
                    <mxGeometry x="10" width="240" height="40" as="geometry"/>
                </mxCell>
                <mxCell id="19" value="4" style="ellipse;whiteSpace=wrap;html=1;aspect=fixed;fillColor=light-dark(#FFFFFF,#336600);" vertex="1" parent="42">
                    <mxGeometry y="10" width="20" height="20" as="geometry"/>
                </mxCell>
                <mxCell id="47" value="" style="group" vertex="1" connectable="0" parent="1">
                    <mxGeometry x="390" y="80" width="250" height="40" as="geometry"/>
                </mxCell>
                <mxCell id="44" value="" style="rounded=0;whiteSpace=wrap;html=1;" vertex="1" parent="47">
                    <mxGeometry x="10" width="240" height="40" as="geometry"/>
                </mxCell>
                <mxCell id="45" value="Quantity" style="rounded=0;whiteSpace=wrap;html=1;strokeColor=light-dark(#000000,transparent);" vertex="1" parent="47">
                    <mxGeometry x="20" y="10" width="220" height="20" as="geometry"/>
                </mxCell>
                <mxCell id="46" value="1" style="ellipse;whiteSpace=wrap;html=1;aspect=fixed;fillColor=light-dark(#FFFFFF,#336600);" vertex="1" parent="47">
                    <mxGeometry y="10" width="20" height="20" as="geometry"/>
                </mxCell>
                <mxCell id="51" value="" style="group" vertex="1" connectable="0" parent="1">
                    <mxGeometry x="475" y="160" width="80" height="40" as="geometry"/>
                </mxCell>
                <mxCell id="52" value="123" style="rounded=0;whiteSpace=wrap;html=1;" vertex="1" parent="51">
                    <mxGeometry width="80" height="30" as="geometry"/>
                </mxCell>
                <mxCell id="53" value="1" style="ellipse;whiteSpace=wrap;html=1;aspect=fixed;fillColor=light-dark(#FFFFFF,#336600);" vertex="1" parent="51">
                    <mxGeometry x="10" y="20" width="20" height="20" as="geometry"/>
                </mxCell>
                <mxCell id="54" value="" style="group" vertex="1" connectable="0" parent="1">
                    <mxGeometry x="490" y="240" width="50" height="40" as="geometry"/>
                </mxCell>
                <mxCell id="55" value="dec" style="rounded=0;whiteSpace=wrap;html=1;" vertex="1" parent="54">
                    <mxGeometry width="50" height="30" as="geometry"/>
                </mxCell>
                <mxCell id="56" value="2" style="ellipse;whiteSpace=wrap;html=1;aspect=fixed;fillColor=light-dark(#FFFFFF,#336600);" vertex="1" parent="54">
                    <mxGeometry x="10" y="20" width="20" height="20" as="geometry"/>
                </mxCell>
                <mxCell id="57" value="" style="shape=singleArrow;direction=south;whiteSpace=wrap;html=1;strokeColor=light-dark(#000000,#FFFF00);" vertex="1" parent="1">
                    <mxGeometry x="510" y="130" width="10" height="20" as="geometry"/>
                </mxCell>
                <mxCell id="61" value="" style="shape=singleArrow;direction=south;whiteSpace=wrap;html=1;strokeColor=light-dark(#000000,#FFFF00);" vertex="1" parent="1">
                    <mxGeometry x="510" y="210" width="10" height="20" as="geometry"/>
                </mxCell>
                <mxCell id="62" value="" style="group" vertex="1" connectable="0" parent="1">
                    <mxGeometry x="490" y="320" width="50" height="40" as="geometry"/>
                </mxCell>
                <mxCell id="63" value="inc" style="rounded=0;whiteSpace=wrap;html=1;" vertex="1" parent="62">
                    <mxGeometry width="50" height="30" as="geometry"/>
                </mxCell>
                <mxCell id="64" value="3" style="ellipse;whiteSpace=wrap;html=1;aspect=fixed;fillColor=light-dark(#FFFFFF,#336600);" vertex="1" parent="62">
                    <mxGeometry x="10" y="20" width="20" height="20" as="geometry"/>
                </mxCell>
                <mxCell id="65" value="" style="shape=singleArrow;direction=south;whiteSpace=wrap;html=1;strokeColor=light-dark(#000000,#FFFF00);" vertex="1" parent="1">
                    <mxGeometry x="510" y="290" width="10" height="20" as="geometry"/>
                </mxCell>
                <mxCell id="66" value="" style="group" vertex="1" connectable="0" parent="1">
                    <mxGeometry x="390" y="400" width="250" height="40" as="geometry"/>
                </mxCell>
                <mxCell id="67" value="Edit" style="rounded=0;whiteSpace=wrap;html=1;" vertex="1" parent="66">
                    <mxGeometry x="10" width="240" height="40" as="geometry"/>
                </mxCell>
                <mxCell id="68" value="2" style="ellipse;whiteSpace=wrap;html=1;aspect=fixed;fillColor=light-dark(#FFFFFF,#336600);" vertex="1" parent="66">
                    <mxGeometry y="10" width="20" height="20" as="geometry"/>
                </mxCell>
                <mxCell id="69" value="" style="shape=singleArrow;direction=south;whiteSpace=wrap;html=1;strokeColor=light-dark(#000000,#FFFF00);" vertex="1" parent="1">
                    <mxGeometry x="510" y="370" width="10" height="20" as="geometry"/>
                </mxCell>
                <mxCell id="70" value="" style="group" vertex="1" connectable="0" parent="1">
                    <mxGeometry x="390" y="480" width="250" height="40" as="geometry"/>
                </mxCell>
                <mxCell id="71" value="Delete" style="rounded=0;whiteSpace=wrap;html=1;" vertex="1" parent="70">
                    <mxGeometry x="10" width="240" height="40" as="geometry"/>
                </mxCell>
                <mxCell id="72" value="3" style="ellipse;whiteSpace=wrap;html=1;aspect=fixed;fillColor=light-dark(#FFFFFF,#336600);" vertex="1" parent="70">
                    <mxGeometry y="10" width="20" height="20" as="geometry"/>
                </mxCell>
                <mxCell id="73" value="" style="shape=singleArrow;direction=south;whiteSpace=wrap;html=1;strokeColor=light-dark(#000000,#FFFF00);" vertex="1" parent="1">
                    <mxGeometry x="510" y="450" width="10" height="20" as="geometry"/>
                </mxCell>
                <mxCell id="74" value="" style="group" vertex="1" connectable="0" parent="1">
                    <mxGeometry x="390" y="560" width="250" height="40" as="geometry"/>
                </mxCell>
                <mxCell id="75" value="Cancel" style="rounded=0;whiteSpace=wrap;html=1;" vertex="1" parent="74">
                    <mxGeometry x="10" width="240" height="40" as="geometry"/>
                </mxCell>
                <mxCell id="76" value="4" style="ellipse;whiteSpace=wrap;html=1;aspect=fixed;fillColor=light-dark(#FFFFFF,#336600);" vertex="1" parent="74">
                    <mxGeometry y="10" width="20" height="20" as="geometry"/>
                </mxCell>
                <mxCell id="77" value="" style="shape=singleArrow;direction=south;whiteSpace=wrap;html=1;strokeColor=light-dark(#000000,#FFFF00);" vertex="1" parent="1">
                    <mxGeometry x="510" y="530" width="10" height="20" as="geometry"/>
                </mxCell>
                <mxCell id="80" value="The assigned tabIndex:" style="text;html=1;align=center;verticalAlign=middle;whiteSpace=wrap;rounded=0;" vertex="1" parent="1">
                    <mxGeometry x="40" y="40" width="130" height="30" as="geometry"/>
                </mxCell>
            </root>
        </mxGraphModel>
    </diagram>
</mxfile>